<?xml version="1.0" standalone="no"?><!DOCTYPE svg PUBLIC "-//W3C//DTD SVG 1.1//EN" "http://www.w3.org/Graphics/SVG/1.1/DTD/svg11.dtd"><svg class="icon" width="200px" height="200.00px" viewBox="0 0 1024 1024" version="1.1" xmlns="http://www.w3.org/2000/svg"><path fill="#333333" d="M447.8 932c-48 0-94.6-9.4-138.5-28-42.4-17.9-80.4-43.6-113.1-76.2s-58.3-70.7-76.2-113.1c-18.6-43.9-28-90.5-28-138.5s9.4-94.6 28-138.5c17.9-42.4 43.6-80.4 76.2-113.1 32.7-32.7 70.7-58.3 113.1-76.3 43.9-18.6 90.5-28 138.5-28 19.3 0 35 15.7 35 35v287h285.8c9.3 0 18.2 3.7 24.8 10.3 6.6 6.6 10.2 15.5 10.2 24.8-0.2 47.9-9.7 94.4-28.3 138.1-18 42.2-43.7 80.2-76.3 112.7-32.6 32.5-70.6 58.1-112.9 75.9-43.9 18.5-90.4 27.9-138.3 27.9z m-35-639.6C271.7 309.8 162 430.4 162 576.2 162 733.8 290.2 862 447.8 862c145.2 0 265.7-109.2 283.5-249.7H447.8c-19.3 0-35-15.7-35-35V292.4z"  /><path fill="#333333" d="M897 484H576.2c-19.3 0-35-15.7-35-35V127c0-19.3 15.7-35 35-35C772.4 92 932 252.1 932 449c0 19.3-15.7 35-35 35z m-285.8-70h248.7c-15.8-130.3-119-233.9-248.7-249.9V414z"  /></svg>